<svg id="Capa_1" data-name="Capa 1" xmlns="http://www.w3.org/2000/svg" viewBox="0 0 35 35"><defs><style>.cls-1{fill:#00beed;}.cls-2{fill:none;stroke:#00beed;stroke-miterlimit:10;}.cls-3{fill:#10102e;}</style></defs><path class="cls-1" d="M19.68,23.76a29.55,29.55,0,0,1-5.25,0,20.89,20.89,0,0,1-.9,3.84,21,21,0,0,1-3.61,6.49,22.77,22.77,0,0,0,8.26-4.54A23,23,0,0,0,23.3,23.2,28.49,28.49,0,0,1,19.68,23.76Zm-1.83,4.41A26.57,26.57,0,0,1,12,32.34a14.77,14.77,0,0,0,2.79-4.82A15.05,15.05,0,0,0,15.42,25c.65,0,1.35,0,2.08,0A28.5,28.5,0,0,0,21,24.64,27,27,0,0,1,17.85,28.17Z"/><path class="cls-2" d="M8.58,13.67A33.17,33.17,0,0,1,11.79,10a35.8,35.8,0,0,1,2.74-2.44A2.41,2.41,0,0,0,14,4.73a2.53,2.53,0,0,0-2.27-.44A7.57,7.57,0,0,0,9.62,6.21C7.39,9.26,8.4,13,8.58,13.67Z"/><path class="cls-1" d="M10.83,4.72a6.52,6.52,0,0,0-2.06-2,6.76,6.76,0,0,0-4.15-.91.74.74,0,0,1-.13-.47A.67.67,0,0,1,4.66,1a7,7,0,0,1,6.81,3.21Z"/><path class="cls-1" d="M9.9,5.83A6.44,6.44,0,0,0,7.65,4.07a6.77,6.77,0,0,0-4.22-.49.7.7,0,0,1-.18-.45.69.69,0,0,1,.13-.41,7.05,7.05,0,0,1,7.1,2.51Z"/><path class="cls-3" d="M11.36,12.44l.89,1.83a65.34,65.34,0,0,1,6.19-3.44c4.72-2.3,6.43-2.22,7.24-1.93A3,3,0,0,1,26,9a4.89,4.89,0,0,1,2.27,3,7.8,7.8,0,0,1-.87,4c-2.18,4.1-7.41,4.38-7.76,4.39v-.81c-1.1.29-2.29.55-3.57.76q-1,.16-1.92.27l.13,1.88a22.17,22.17,0,0,0,6.29-.07c2.54-.39,4.8-.74,6.94-2.41,2.67-2.09,5-6,4.05-9.68a7.18,7.18,0,0,0-1.15-2.45,7,7,0,0,0-2.1-1.7C24,4,17.36,6.65,11.36,12.44Z"/><polygon class="cls-3" points="12.9 15.72 13.88 19.32 20.61 16.99 21.19 12.19 12.9 15.72"/></svg>