<svg id="Capa_1" data-name="Capa 1" xmlns="http://www.w3.org/2000/svg" viewBox="0 0 40 40"><defs><style>.cls-1{fill:#00beed;}.cls-2{fill:none;stroke:#00beed;stroke-miterlimit:10;}.cls-3{fill:#fff;}</style></defs><path class="cls-1" d="M22.51,27.23a34.88,34.88,0,0,1-6.06,0,23.21,23.21,0,0,1-1,4.43,24,24,0,0,1-4.17,7.5A26.18,26.18,0,0,0,26.69,26.58,32.3,32.3,0,0,1,22.51,27.23Zm-2.1,5.09a31.15,31.15,0,0,1-6.76,4.82,17.19,17.19,0,0,0,3.22-5.57,17.29,17.29,0,0,0,.73-2.87c.75,0,1.55,0,2.39,0a32.69,32.69,0,0,0,4-.44A31.48,31.48,0,0,1,20.41,32.32Z"/><path class="cls-2" d="M9.7,15.58a38,38,0,0,1,3.7-4.27,38.41,38.41,0,0,1,3.17-2.82,2.8,2.8,0,0,0-.64-3.24,2.91,2.91,0,0,0-2.62-.5A8.5,8.5,0,0,0,10.9,7C8.33,10.49,9.49,14.85,9.7,15.58Z"/><path class="cls-1" d="M12.3,5.24A7.56,7.56,0,0,0,9.92,3,7.86,7.86,0,0,0,5.13,1.89.81.81,0,0,1,5,1.35.75.75,0,0,1,5.18.9,8.16,8.16,0,0,1,13,4.61Z"/><path class="cls-1" d="M11.23,6.53a7.59,7.59,0,0,0-7.48-2.6.85.85,0,0,1-.21-.52.77.77,0,0,1,.16-.47,8.15,8.15,0,0,1,8.2,2.89Z"/><path class="cls-3" d="M12.91,14.15l1,2.12a73.28,73.28,0,0,1,7.15-4c5.44-2.66,7.42-2.56,8.36-2.23a3.8,3.8,0,0,1,.35.16,5.6,5.6,0,0,1,2.62,3.42,9,9,0,0,1-1,4.61c-2.52,4.74-8.56,5.07-9,5.08v-.93c-1.27.33-2.65.63-4.12.87-.77.13-1.51.23-2.22.31l.15,2.17a25.68,25.68,0,0,0,7.26-.08c2.94-.45,5.54-.85,8-2.78,3.09-2.42,5.76-6.94,4.69-11.18a8.49,8.49,0,0,0-1.34-2.83,7.91,7.91,0,0,0-2.42-2C27.53,4.39,19.84,7.47,12.91,14.15Z"/><polygon class="cls-3" points="14.69 17.94 15.82 22.1 23.59 19.41 24.26 13.87 14.69 17.94"/></svg>