<svg id="Capa_1" data-name="Capa 1" xmlns="http://www.w3.org/2000/svg" viewBox="0 0 70 70"><defs><style>.cls-1{fill:#fff;}.cls-1,.cls-2{fill-rule:evenodd;}.cls-2{fill:#00beed;}</style></defs><path class="cls-1" d="M58.18,36.28l5.21,0-2.68-4.36Zm-5.61,4.34h2.82l1.51-2.49h7.52c.27.4.51.82.78,1.23l.59.92a1.93,1.93,0,0,1,.19.34h2.86c-.13-.24-.31-.49-.45-.73L67,37.7c-.61-1-1.21-1.93-1.83-2.91-.71-1.14-1.55-2.55-2.28-3.65-.46-.69-.87-1.64-2-1.64a1.89,1.89,0,0,0-2,.87c-.36.48-1.85,2.94-2.3,3.64l-3.91,6.23A1.63,1.63,0,0,0,52.57,40.62Z"/><path class="cls-1" d="M38.55,36.35l5.21,0L41.08,32Zm-5.49,4.27h2.82c.23-.42.53-.85.78-1.26l.58-.94c.11-.2.11-.29.24-.29h7.36c.17,0,.72,1,.84,1.2l.79,1.29h2.87c-.25-.45-1.49-2.37-1.83-2.92-.61-1-1.2-1.93-1.82-2.91L44.32,32.6C44,32,43.06,30.55,42.7,30.09a1,1,0,0,0-.15-.14A1.8,1.8,0,0,0,41,29.5c-1.23,0-1.75,1.29-2.42,2.33l-.91,1.45c-.33.5-.6,1-.93,1.48L34.9,37.67c-.16.25-.31.48-.46.73s-.3.47-.46.73Z"/><path class="cls-1" d="M18.88,34.12l.66,1.39,2.78-1.58A33.13,33.13,0,0,1,28,31.46c1.32-.39,2.33-.47,3.31.51a2.75,2.75,0,0,1,.28.37c.87,1.3.59,3.63-.07,4.93a4.82,4.82,0,0,1-.93,1.4c-.33.4-.13.15-.41.41a4.14,4.14,0,0,1-.94.62,14.81,14.81,0,0,1-4,.8,3.62,3.62,0,0,0,.17-.61l-3.19.62a8.33,8.33,0,0,1-1.11.2l.17,1.43c.55,0,1,0,1.51,0,2.68,0,6.53-.38,8.57-1.86l.53-.41a7,7,0,0,0,.81-.83,8.8,8.8,0,0,0,1.88-7.71,3.54,3.54,0,0,0-3.73-2.56,8.59,8.59,0,0,0-1.92.25l-1.25.35-.42.15a36.12,36.12,0,0,0-6.42,3.31c-.59.35-1.51,1-2,1.25"/><path class="cls-1" d="M46.51,31.83H49.7v8.79h2.46V31.83h3.35c.05-.22,1.23-1.87,1.23-2v-.12H45.21a2.32,2.32,0,0,0,.32.54l.82,1.3a.85.85,0,0,1,.16.28"/><path class="cls-1" d="M20.1,36.82c0,.28.76,2.35.78,2.62l1.2-.52a34.86,34.86,0,0,1,3.34-1,4.31,4.31,0,0,1,.73-.17l.69-3.48A19.14,19.14,0,0,0,21.64,36l-1.54.79"/><path class="cls-2" d="M28.6,16.72v7.07c0,.19.14.28.27.36s.26.15.42.24L35,27.68c.28,0,.26-.05.53-.21l5.74-3.31c.14-.08.29-.14.29-.37V16.72c0-.22-.13-.28-.27-.36l-.41-.24-3.28-1.9c-.21-.12-2.31-1.39-2.49-1.39s-.66.3-.92.44l-.39.23c-1.5.84-3,1.78-4.51,2.61-.31.17-.71.32-.71.61m-.75-.41V24.2a.46.46,0,0,0,.3.4c.18.09.29.17.47.27L35,28.53c.32,0,.29-.05.59-.22l6.4-3.7c.16-.09.33-.16.33-.41V16.31c0-.24-.14-.31-.3-.4l-.46-.27-3.66-2.11A30,30,0,0,0,35.13,12c-.34,0-.73.33-1,.49l-.44.25c-1.67.93-3.38,2-5,2.91C28.3,15.82,27.85,16,27.85,16.31Z"/><path class="cls-2" d="M28.6,46.43v7.08a.41.41,0,0,0,.27.35c.16.09.26.16.42.24L35,57.39c.28,0,.26,0,.53-.2l5.74-3.31c.14-.09.29-.15.29-.37V46.43c0-.21-.13-.28-.27-.36l-.41-.24-3.28-1.89a27.42,27.42,0,0,0-2.49-1.39c-.31,0-.66.3-.92.44s-.25.15-.39.23c-1.5.83-3,1.78-4.51,2.6-.31.17-.71.32-.71.61M27.85,46v7.9a.46.46,0,0,0,.3.39c.18.1.29.18.47.27L35,58.25c.32,0,.29-.06.59-.23L42,54.33c.16-.1.33-.16.33-.41V46c0-.24-.14-.31-.3-.4l-.46-.27-3.66-2.11a30,30,0,0,0-2.78-1.55c-.34,0-.73.34-1,.49l-.44.26c-1.67.93-3.38,2-5,2.9C28.3,45.53,27.85,45.7,27.85,46Z"/><path class="cls-2" d="M22.09,43.83a13.55,13.55,0,0,0,2.79,0,8.5,8.5,0,0,0,1.8-.39,27.9,27.9,0,0,1-7.5,6.42,15.29,15.29,0,0,0,2.91-6m-.82-.94a13.72,13.72,0,0,1-.72,3c-.14.41-.5,1.14-.68,1.52a27.06,27.06,0,0,1-2.15,3.37c-.08.11-.09.08-.13.24a10.68,10.68,0,0,0,4.14-1.87,23.66,23.66,0,0,0,3.33-2.72c.12-.11.19-.14.31-.26s.2-.19.3-.32l1.13-1.28a10.92,10.92,0,0,0,1-1.42c.17-.28.29-.52.43-.8l-1.57.35a15.36,15.36,0,0,1-2.64.31h-.48a9.34,9.34,0,0,1-1.4,0A8.37,8.37,0,0,0,21.27,42.89Z"/><path class="cls-2" d="M17,34.05s-.78-3.73.31-5S19.58,27.4,20.41,28s1.2,1.15.51,1.93c-1.36,1.53-2.66,2.4-3.94,4.14m-3.64-9c0,.84,1.33.32,3,.87a3.19,3.19,0,0,1,.87.48,7,7,0,0,1,1,.92c.09.12.15.15.23.26a3.69,3.69,0,0,0-.53.29,6.72,6.72,0,0,0-1.57-1.3A6.16,6.16,0,0,0,13.05,26c-.59,0-.92.58-.39.8.17.08.26,0,.46,0a4.71,4.71,0,0,1,3.74.75,2.57,2.57,0,0,1,.61.62,4.1,4.1,0,0,0-.87,1.42,9,9,0,0,0-.21,4.28l.26,1.41s.83-1.13,1-1.34l2.74-2.61c.9-.76,1.94-1.75,1.27-3.06a2.13,2.13,0,0,0-.41-.56,2.22,2.22,0,0,0-1.77-.61,2.61,2.61,0,0,0-.77.21,5.18,5.18,0,0,0-3-2.37,6.46,6.46,0,0,0-1.59-.25C13.85,24.69,13.34,24.78,13.34,25Z"/><path class="cls-2" d="M10.8,45.91V53.6c0,.43.28.49.7.73l.94.54c.31.18.6.36.93.54l4.17,2.41c.73.44.57.21,1.89-.5l5.47-3.16c.38-.22.38-.21.38-.52,0-.13-.21-.29-.37-.29a1,1,0,0,0-.45.21l-1.24.72c-.57.33-1.12.62-1.66.95l-.83.48c-.78.47-1.75,1-2.49,1.44-.27.17-.3,0-.85-.28-.28-.15-.54-.32-.83-.48l-3.32-1.92c-.29-.17-.54-.3-.83-.48s-.56-.33-.83-.47V46a1.58,1.58,0,0,0,.42-.23l.45-.25L18,42.27c.39-.21.37-.18.37-.53,0-.15-.24-.31-.43-.26s-3.11,1.76-3.46,2c-.65.39-1.29.73-1.94,1.13-.34.2-.66.36-1,.56l-.49.29a.48.48,0,0,0-.3.48"/><path class="cls-2" d="M10.8,16.39v7.69c0,.3.12.49.41.49s.37-.3.37-.66V16.47c.18,0,3.56-2,4-2.3l2.44-1.39c.08,0,2.14,1.22,2.4,1.36s.54.32.83.48c.51.28,3,1.8,3.26,1.85,0,.27,0,7.65,0,7.84a.37.37,0,0,0,.72-.07v-8c0-.29-.42-.45-.78-.65-1.7-1-3.81-2.16-5.44-3.15A2.65,2.65,0,0,0,18,12c-.09,0-3.16,1.81-3.67,2.09l-2.75,1.59c-.43.25-.74.33-.74.73"/><path class="cls-2" d="M2.42,30.87V38.8c0,.32.42.44.77.66l4.59,2.65c.3.16.61.34.91.52.57.35.88.61,1.21.41l6.19-3.57c.31-.17.81-.39.81-.67a.39.39,0,0,0-.41-.37,29.25,29.25,0,0,0-2.58,1.43l-3.42,2-.41.24a1.53,1.53,0,0,1-.46.23l-2-1.15c-1.45-.81-3.07-1.83-4.47-2.57V31.07L4,30.59c1.41-.78,2.94-1.74,4.35-2.52l.88-.5c.31-.19,1-.48.67-.9s-.69.07-1.18.34l-6,3.45c-.16.1-.34.16-.34.41"/><path class="cls-2" d="M19.39,9.24c0,.35.37.46.74.68,1.45.88,3.16,1.79,4.62,2.67a17,17,0,0,0,1.88,1c.25,0,3.26-1.82,3.72-2.08l1.81-1,.45-.25.46-.27c.34-.19.79-.38.79-.68a.36.36,0,0,0-.36-.37c-.21,0-3.27,1.83-3.44,1.92l-3.43,2-1.7-1c-.58-.35-1.13-.64-1.71-1-.33-.2-3.32-1.93-3.42-1.93a.41.41,0,0,0-.41.33"/><path class="cls-2" d="M19.39,60.22a.76.76,0,0,0,.11.26.42.42,0,0,0,.3.11c.14,0,3.65-2.09,4.22-2.4l2.57-1.48a14,14,0,0,1,1.74.95l2.56,1.48c.31.17.56.33.86.5l.85.49a4,4,0,0,0,.9.46c.28,0,.64-.42.07-.77L29,57.21a18.92,18.92,0,0,0-2.4-1.32,15.92,15.92,0,0,0-1.86,1c-.62.37-1.22.69-1.84,1.06l-3.21,1.85c-.14.08-.33.19-.33.41"/><path class="cls-2" d="M1,41.83c0,.3.39.46.71.63l5.7,3.3A2.47,2.47,0,0,0,7.9,46v7.4c0,.52,0,.7.45.7a.42.42,0,0,0,.29-.29v-8c0-.29-.44-.47-.78-.66l-.44-.25L5.11,43.55c-.61-.37-1.22-.7-1.84-1.07l-.44-.25a11,11,0,0,0-1.43-.78.42.42,0,0,0-.37.37Z"/><path class="cls-2" d="M7.9,24c-.28.14-.58.32-.86.49L6.17,25c-.31.18-.6.33-.89.51l-4,2.29a.5.5,0,0,0-.29.37v0a.4.4,0,0,0,.65.23l1.61-.93c1.58-.95,3.38-1.94,5-2.89.17-.1.35-.14.35-.39v-8A.38.38,0,0,0,8,16c-.17.17-.09.75-.09,1.06Z"/></svg>